<svg xmlns="http://www.w3.org/2000/svg" viewBox="399 0 561 560" enable-background="new 399 0 561 560"><g enable-background="new" fill="#fff"><path d="M487.1 617c0-6.2 4.6-10.5 10.4-10.5 3.6 0 6.1 1.7 7.6 4l-2.2 1.2c-1.2-1.7-3.3-3-5.6-3-4.5 0-7.8 3.4-7.8 8.2 0 4.8 3.3 8.2 7.8 8.2 2.3 0 4.4-1.2 5.6-3l2.2 1.2c-1.7 2.3-4.2 4-7.7 4-5.7.2-10.3-4.1-10.3-10.3zM528.5 627.1l-5.1-8h-4v8h-2.5v-20.2h8.1c3.7 0 6.3 2.4 6.3 6.1 0 3.6-2.5 5.6-5.3 5.9l5.4 8.2h-2.9zm.1-14.1c0-2.3-1.6-3.9-4-3.9h-5.3v7.7h5.3c2.4 0 4-1.6 4-3.8zM543.6 627.1v-20.2h13.2v2.2H546v6.5h10.5v2.2H546v7h10.8v2.2l-13.2.1zM583.7 627.1l-1.8-4.5h-10.1l-1.8 4.5h-2.9l8.1-20.2h3.1l8.2 20.2h-2.8zm-6.9-17.6l-4.3 10.9h8.6l-4.3-10.9zM600.5 627.1v-18h-6.4v-2.2h15.4v2.2H603v18h-2.5zM621.2 627.1v-20.2h2.5v20.2h-2.5zM642.8 627.1l-8.1-20.2h2.9l6.8 17.5 6.8-17.5h2.9l-8.2 20.2h-3.1zM665.1 627.1v-20.2h13.2v2.2h-10.8v6.5h10.6v2.2h-10.5v7h10.8v2.2l-13.3.1zM706.9 627.1v-20.2h6.9c6.3 0 10.4 4.4 10.4 10.1 0 5.8-4.1 10.1-10.4 10.1h-6.9zm14.7-10.1c0-4.4-2.7-7.9-7.8-7.9h-4.4v15.7h4.4c5 .1 7.8-3.5 7.8-7.8zM736.5 627.1v-20.2h13.2v2.2H739v6.5h10.5v2.2H739v7h10.8v2.2l-13.3.1zM761 624.3l1.5-1.9c1.3 1.5 3.5 2.9 6.4 2.9 3.6 0 4.8-1.9 4.8-3.5 0-5.2-12-2.3-12-9.6 0-3.3 3-5.6 7-5.6 3.1 0 5.5 1 7.2 2.8l-1.5 1.9c-1.5-1.6-3.6-2.5-5.9-2.5-2.5 0-4.2 1.3-4.2 3.2 0 4.5 12 1.9 12 9.5 0 3-2 5.9-7.4 5.9-3.7.1-6.3-1.3-7.9-3.1zM788.3 627.1v-20.2h2.5v20.2h-2.5zM803.1 617c0-6.3 4.6-10.5 10.4-10.5 3.6 0 6.1 1.6 7.9 3.8l-2 1.3c-1.3-1.6-3.4-2.8-5.9-2.8-4.5 0-7.8 3.4-7.8 8.2 0 4.8 3.3 8.2 7.8 8.2 2.5 0 4.5-1.2 5.4-2.2v-4.2h-7v-2.2h9.4v7.3c-1.9 2.1-4.6 3.5-7.9 3.5-5.6.1-10.3-4.1-10.3-10.4zM848.2 627.1L836.4 611v16.1h-2.5v-20.2h2.6l11.7 15.8v-15.8h2.5v20.2h-2.5zM470.9 663.5c-.6-.5-1.4-1.3-2.2-2.2-1.5 1.5-3.3 2.5-5.8 2.5-3.5 0-6.3-1.9-6.3-5.6 0-3.1 2.2-4.8 4.5-6-.9-1.6-1.6-3.1-1.6-4.5 0-2.7 2.2-4.7 5.1-4.7 2.7 0 4.6 1.4 4.6 3.9 0 3-2.6 4.4-5.1 5.7.8 1.1 1.6 2.2 2.3 2.9.8 1 1.6 1.9 2.4 2.7 1.1-1.6 1.9-3.5 2.2-4.6l2 .8c-.7 1.6-1.6 3.5-2.7 5.2 1.2 1.3 2.5 2.5 3.9 3.8H471l-.1.1zm-3.6-3.5c-1.2-1.2-2.2-2.4-2.8-3-.8-1-1.7-2.1-2.5-3.2-1.6 1-3 2.3-3 4.4 0 2.5 1.9 3.9 4.1 3.9 1.7-.1 3.1-1 4.2-2.1zm-4.2-8.8c2.2-1 4-2.2 4-4.2 0-1.5-1-2.3-2.4-2.3-1.6 0-2.8 1.2-2.8 3-.1 1.1.4 2.3 1.2 3.5zM517.3 663.5l-4.5-16.3-4.5 16.3h-2.7l-5.8-20.2h2.8l4.5 16.9 4.6-16.9h2.1l4.6 16.9 4.5-16.9h2.8l-5.8 20.2h-2.6zM537 663.5v-20.2h13.2v2.2h-10.8v6.5H550v2.2h-10.5v7h10.8v2.2l-13.3.1zM562.6 663.5v-20.2h9c3.5 0 5.6 2.2 5.6 5.1 0 2.5-1.7 4.2-3.6 4.6 2.2.3 3.9 2.5 3.9 5 0 3.3-2.2 5.4-5.9 5.4l-9 .1zm12.1-14.7c0-1.9-1.2-3.3-3.5-3.3h-6.1v6.5h6.1c2.3 0 3.5-1.4 3.5-3.2zm.4 9c0-1.9-1.3-3.5-3.8-3.5h-6.2v7h6.2c2.3 0 3.8-1.4 3.8-3.5zM606.3 663.5v-20.2h6.9c6.3 0 10.4 4.4 10.4 10.1 0 5.8-4.1 10.1-10.4 10.1h-6.9zm14.7-10.1c0-4.4-2.7-7.9-7.8-7.9h-4.4v15.7h4.4c4.9.1 7.8-3.5 7.8-7.8zM635.9 663.5v-20.2h13.2v2.2h-10.8v6.5h10.5v2.2h-10.5v7h10.8v2.2l-13.2.1zM667.5 663.5l-8.1-20.2h2.9l6.8 17.5 6.8-17.5h2.9l-8.2 20.2h-3.1zM689.8 663.5v-20.2H703v2.2h-10.8v6.5h10.5v2.2h-10.5v7H703v2.2l-13.2.1zM715.4 663.5v-20.2h2.5v18h9.4v2.2h-11.9zM737.4 653.4c0-5.9 4-10.5 10-10.5 5.9 0 10 4.5 10 10.5 0 5.9-4.1 10.5-10 10.5-6 0-10-4.6-10-10.5zm17.5 0c0-4.8-2.9-8.2-7.4-8.2s-7.4 3.5-7.4 8.2c0 4.7 2.9 8.2 7.4 8.2s7.4-3.5 7.4-8.2zM769.8 663.5v-20.2h8.1c4.1 0 6.3 2.8 6.3 6.1s-2.3 6.1-6.3 6.1h-5.6v8h-2.5zm11.9-14.1c0-2.3-1.6-3.9-4-3.9h-5.3v7.7h5.3c2.3 0 4-1.6 4-3.8zM813.2 663.5v-16.7l-6.9 16.6h-1l-6.8-16.6v16.6H796v-20.2h3.6l6.3 15.2 6.3-15.2h3.6v20.2l-2.6.1zM828.9 663.5v-20.2h13.2v2.2h-10.8v6.5h10.5v2.2h-10.5v7h10.8v2.2l-13.2.1zM868.8 663.5L857 647.4v16.1h-2.5v-20.2h2.6l11.7 15.8v-15.8h2.5v20.2h-2.5zM889.4 663.5v-18H883v-2.2h15.4v2.2h-6.5v18h-2.5z"/></g><g enable-background="new"><path d="M453.6 185.8V72.3h12.6v102.9h20.1v10.5l-32.7.1zM507.5 186.9c-6.7 0-12.3-5.5-12.3-12.3v-91c0-6.7 5.5-12.3 12.3-12.3h18.6c6.7 0 12.3 5.5 12.3 12.3v91.1c0 6.7-5.5 12.3-12.3 12.3h-18.6v-.1zm18.3-105.1H508v94.5h17.8V81.8zM563.5 185.8L547.2 72.4h12.6l11.7 95.4L583 72.4h12.7l-16 113.4h-16.2zM605.7 185.8V72.3h35.6v10.5h-23.1v40.8h19.3v10.7h-19.3v41h23.1v10.5h-35.6zM663.5 186.9c-6.7 0-12.3-5.5-12.3-12.3v-91c0-6.7 5.5-12.3 12.3-12.3h18.6c6.7 0 12 5.5 12 12.3v17.9h-12.6V81.8h-17.8v94.5H683v-36.5h-8.8v-10.7h20.5v45.5c0 6.7-5.3 12.3-12 12.3h-19.2zM739 185.8l-8.5-45.6h-10v45.6H708V72.3h29.3c6.7 0 12.3 5.5 12.3 12.3v43.2c0 4.8-2.7 9-6.7 11l9.3 47H739zM736.9 83h-16.3v47.2h16.3V83zM774.3 186.9c-6.7 0-12.3-5.5-12.3-12.3v-91c0-6.7 5.5-12.3 12.3-12.3h18.6c6.7 0 12.3 5.5 12.3 12.3v91.1c0 6.7-5.5 12.3-12.3 12.3h-18.6v-.1zm18.2-105.1h-17.8v94.5h17.8V81.8zM830.2 185.8L813.8 72.4h12.6l11.7 95.4 11.5-95.4h12.7l-16 113.4h-16.1zM872.4 185.8V72.3H908v10.5h-23.1v40.8h19.3v10.7h-19.3v41H908v10.5h-35.6z"/></g><g enable-background="new"><path d="M454.4 385.7V203.4H502c10.8 0 19.7 8.8 19.7 19.7v143c0 10.8-8.8 19.7-19.7 19.7l-47.6-.1zm47.1-165.5h-26.8v148.6h26.8V220.2zM543.8 385.7V203.4h57.3v16.9H564v65.6h31v17.2h-31V369h37.1v16.9h-57.3v-.2zM635.1 387.3c-10.8 0-19.7-8.8-19.7-19.7v-25.7h20.2v28.5h23.8V333l-40.1-69.7c-3.9-6.4-3.9-13-3.9-13v-29c0-10.8 8.8-19.7 19.7-19.7H660c11.1 0 19.7 8.8 19.7 19.7V247h-20.2v-28.5h-23.8v33.8l40.4 69.7c3.9 6.6 3.6 12.7 3.6 12.7v32.9c0 10.8-8.6 19.7-19.7 19.7h-24.9zM699.6 385.7V203.4h20.2v182.3h-20.2zM761.6 387.3c-10.8 0-19.7-8.8-19.7-19.7V221.3c0-10.8 8.8-19.7 19.7-19.7h29.9c10.8 0 19.4 8.8 19.4 19.7V250h-20.2v-31.6h-28.5v151.9h31v-58.7H779v-17.2h32.9v73.1c0 10.8-8.5 19.7-19.4 19.7h-30.9v.1zM883.1 385.7V220.5h-29.9v165.2H833V203.4h20.2v10.2c2.7-6.9 7.2-10.2 16-10.2h14.9c10.8 0 19.7 8.8 19.7 19.7v162.7l-20.7-.1z"/></g><path fill="#E0A300" d="M604.5 541.1l-5.9 4.3 2.3-6.9-5.9-4.3 7.2.1 2.3-7 2.2 7 7.3-.1-6 4.3 2.3 6.9zM640.1 541.1l-5.9 4.3 2.3-6.9-5.9-4.3 7.2.1 2.3-7 2.3 7 7.2-.1-5.9 4.3 2.2 6.9zM675.7 541.1l-5.9 4.3 2.3-6.9-5.9-4.3 7.2.1 2.3-7 2.2 7 7.2-.1-5.8 4.3 2.3 6.9zM711.3 541.1l-5.9 4.3 2.3-6.9-5.9-4.3 7.2.1 2.3-7 2.2 7 7.3-.1-6 4.3 2.3 6.9zM746.9 541.1l-5.9 4.3 2.3-6.9-6-4.3 7.3.1 2.3-7 2.2 7 7.3-.1-6 4.3 2.3 6.9z"/><path stroke="#EDEDD6" stroke-width="3" stroke-miterlimit="10" stroke-dasharray="1.057" fill="none" d="M451.2 422.5h.7"/><g stroke="#EDEDD6" stroke-width="3" stroke-miterlimit="10" fill="none"><path d="M453.5 422.5h1.1"/><path stroke-dasharray="2.9979,2.9979" d="M456.8 422.5H901"/><path d="M902.1 422.5h1.2"/></g><path stroke="#EDEDD6" stroke-width="3" stroke-miterlimit="10" stroke-dasharray="1.057" fill="none" d="M904.1 422.5h.7"/><text transform="translate(484.517 1104.832)" fill="#E0A300" font-family="'Fairview-Regular'" font-size="48.328" letter-spacing="12">CREATIVE DESIGN</text><text transform="translate(454.957 1141.225)" fill="#E0A300" font-family="'Fairview-Regular'" font-size="48.328" letter-spacing="12">&amp; WEB DEVELOPMENT</text><g enable-background="new" fill="#fff"><path d="M489.8 472.1c-1.9 0-3.4-1.5-3.4-3.4v-25.6c0-1.9 1.5-3.4 3.4-3.4h5.2c1.9 0 3.4 1.5 3.4 3.4v5h-3.5v-5.5h-5v26.5h5V463h3.5v5.7c0 1.9-1.5 3.4-3.4 3.4h-5.2zM523.2 471.8l-2.4-12.8H518v12.8h-3.5V440h8.2c1.9 0 3.4 1.5 3.4 3.4v12.1c0 1.4-.8 2.5-1.9 3.1l2.6 13.2h-3.6zm-.6-28.8H518v13.2h4.6V443zM542.6 471.8V440h10v2.9h-6.5v11.5h5.4v3h-5.4v11.5h6.5v2.9h-10zM576.5 471.8V459h-4.8v12.8h-3.5v-28.4c0-1.9 1.5-3.4 3.4-3.4h5.1c1.9 0 3.4 1.5 3.4 3.4v28.4h-3.6zm0-28.9h-4.8V456h4.8v-13.1zM598.7 471.8V443h-3.8v-3h11.2v3h-3.8v28.8h-3.6zM621.6 471.8V440h3.5v31.8h-3.5zM645.2 471.8l-4.6-31.8h3.5l3.3 26.8 3.2-26.8h3.6l-4.5 31.8h-4.5zM669.8 471.8V440h10v2.9h-6.5v11.5h5.4v3h-5.4v11.5h6.5v2.9h-10zM716.2 471.8V440h8.3c1.9 0 3.4 1.5 3.4 3.4v25c0 1.9-1.5 3.4-3.4 3.4h-8.3zm8.2-28.9h-4.7v26h4.7v-26zM744.5 471.8V440h10v2.9H748v11.5h5.4v3H748v11.5h6.5v2.9h-10zM773.1 472.1c-1.9 0-3.4-1.5-3.4-3.4v-4.5h3.5v5h4.2v-6.5l-7-12.2c-.7-1.1-.7-2.3-.7-2.3v-5.1c0-1.9 1.5-3.4 3.4-3.4h4.3c1.9 0 3.4 1.5 3.4 3.4v4.5h-3.5v-5h-4.2v5.9l7.1 12.2c.7 1.2.6 2.2.6 2.2v5.8c0 1.9-1.5 3.4-3.4 3.4h-4.3zM797.1 471.8V440h3.5v31.8h-3.5zM820.6 472.1c-1.9 0-3.4-1.5-3.4-3.4v-25.6c0-1.9 1.5-3.4 3.4-3.4h5.2c1.9 0 3.4 1.5 3.4 3.4v5h-3.5v-5.5h-5v26.5h5.4v-10.2h-2.5v-3h5.8v12.8c0 1.9-1.5 3.4-3.4 3.4h-5.4zM854.6 471.8V443h-5.2v28.8h-3.5V440h3.5v1.8c.5-1.2 1.3-1.8 2.8-1.8h2.6c1.9 0 3.4 1.5 3.4 3.4v28.4h-3.6z"/></g><g enable-background="new" fill="#fff"><path d="M468.1 515.2l-1.5-2.9-.1.4c-.7 1.8-1.8 2.9-3.7 2.9H460c-1.8 0-3.4-1.5-3.4-3.4v-8.8c0-.9.2-1.5.7-2.3l2.1-3.7-1.1-2.4c-.3-.8-.7-1.4-.7-2.3v-6.2c0-1.9 1.5-3.4 3.4-3.4h4.2c1.9 0 3.4 1.5 3.4 3.4v5.3h-3.2V486H461v7.3l5.4 11.6 1.7-4.1h2.8l-2.9 7.6 3.1 6.8h-3zm-3.3-6.3l-3.9-8.3-1.1 2v10h3.4l1.6-3.7zM518.8 515.2c-1.4 0-2.2-1.5-2.4-2.3-.2.8-1 2.3-2.5 2.3h-3.5c-1.9 0-3.4-1.5-3.4-3.4v-28.4h3.6v28.8h4.1v-28.8h3.5v28.8h4.1v-28.8h3.6v28.4c0 1.9-1.5 3.4-3.4 3.4h-3.7zM542.6 515.2v-31.8h10v2.9h-6.5v11.5h5.4v3h-5.4v11.5h6.5v2.9h-10zM568.3 515.2v-31.8h8.2c1.9 0 3.4 1.5 3.4 3.4v9.4c0 1.6-1.5 2.3-1.9 2.4.4.1 2.2.8 2.2 2.4v10.8c0 1.9-1.5 3.4-3.4 3.4h-8.5zm8.1-28.9h-4.6v10.8h4.6v-10.8zm.3 13.8h-4.9v12.2h4.9v-12.2zM617.4 515.2v-31.8h8.3c1.9 0 3.4 1.5 3.4 3.4v25c0 1.9-1.5 3.4-3.4 3.4h-8.3zm8.3-28.9H621v26h4.7v-26zM645.8 515.2v-31.8h10v2.9h-6.5v11.5h5.4v3h-5.4v11.5h6.5v2.9h-10zM674.8 515.2l-4.6-31.8h3.5l3.3 26.8 3.2-26.8h3.6l-4.5 31.8h-4.5zM699.4 515.2v-31.8h10v2.9h-6.5v11.5h5.4v3h-5.4v11.5h6.5v2.9h-10zM725.1 515.2v-31.8h3.5v28.9h5.7v2.9h-9.2zM752.9 515.5c-1.9 0-3.4-1.5-3.4-3.4v-25.6c0-1.9 1.5-3.4 3.4-3.4h5.2c1.9 0 3.4 1.5 3.4 3.4v25.6c0 1.9-1.5 3.4-3.4 3.4h-5.2zm5.2-29.5h-5v26.5h5V486zM778.2 515.2v-31.8h8c1.9 0 3.4 1.5 3.4 3.4v14.8c0 1.9-1.5 3.4-3.4 3.4h-4.4v10.1h-3.6zm7.9-28.8h-4.3V502h4.3v-15.6zM823 515.2v-28.8h-5v28.8h-3.5v-28.8h-5v28.8H806v-31.8h3.5v1.8c.4-1.3 1.6-1.8 3.3-1.8h1.1c1.7 0 2.6.9 3 1.8.5-1.3 1.4-1.8 3-1.8h3.1c1.9 0 3.4 1.5 3.4 3.4v28.4H823zM843.2 515.2v-31.8h10v2.9h-6.5v11.5h5.4v3h-5.4v11.5h6.5v2.9h-10zM877.7 515.2v-28.8h-5.2v28.8H869v-31.8h3.5v1.8c.5-1.2 1.3-1.8 2.8-1.8h2.6c1.9 0 3.4 1.5 3.4 3.4v28.4h-3.6zM900.5 515.2v-28.8h-3.8v-3h11.2v3h-3.8v28.8h-3.6z"/></g><text transform="translate(444.036 844.581)" fill="#EDEDD6" font-family="'Fairview-Regular'" font-size="172.144">LOVEGROVE</text><text transform="translate(440.922 1044.458)" fill="#EDEDD6" font-family="'Fairview-Regular'" font-size="276.716">DESIGN</text><path fill="#E0A300" d="M604.5 1171.6l-5.9 4.3 2.3-6.9-5.9-4.3 7.2.1 2.3-6.9 2.2 6.9 7.3-.1-6 4.3 2.3 6.9zM640.1 1171.6l-5.9 4.3 2.3-6.9-5.9-4.3 7.2.1 2.3-6.9 2.3 6.9 7.2-.1-5.9 4.3 2.2 6.9zM675.7 1171.6l-5.9 4.3 2.3-6.9-5.9-4.3 7.2.1 2.3-6.9 2.2 6.9 7.2-.1-5.8 4.3 2.3 6.9zM711.3 1171.6l-5.9 4.3 2.3-6.9-5.9-4.3 7.2.1 2.3-6.9 2.2 6.9 7.3-.1-6 4.3 2.3 6.9zM746.9 1171.6l-5.9 4.3 2.3-6.9-6-4.3 7.3.1 2.3-6.9 2.2 6.9 7.3-.1-6 4.3 2.3 6.9z"/><g stroke="#EDEDD6" stroke-width="1.645" stroke-miterlimit="10" fill="none"><path d="M451.2 1066.4h.7"/><path stroke-dasharray="2.2929,2.2929" d="M453.5 1066.4h449.8"/><path d="M904.1 1066.4h.7"/></g><g fill="#EDEDD6"><g enable-background="new"><path d="M452.1 184.3V70.9h12.6v102.9h20.1v10.5h-32.7zM506.1 185.4c-6.7 0-12.3-5.5-12.3-12.3v-91c0-6.7 5.5-12.3 12.3-12.3h18.6c6.7 0 12.3 5.5 12.3 12.3v91.1c0 6.7-5.5 12.3-12.3 12.3h-18.6v-.1zm18.2-105h-17.8v94.5h17.8V80.4zM562.1 184.3L545.7 70.9h12.6l11.7 95.4 11.5-95.4h12.7l-16 113.4h-16.1zM604.2 184.3V70.9h35.6v10.5h-23.1v40.8H636v10.7h-19.3v41h23.1v10.5l-35.6-.1zM662 185.4c-6.7 0-12.3-5.5-12.3-12.3v-91c0-6.7 5.5-12.3 12.3-12.3h18.6c6.7 0 12 5.5 12 12.3V100H680V80.4h-17.8v94.5h19.3v-36.5h-8.8v-10.7h20.5v45.5c0 6.7-5.3 12.3-12 12.3l-19.2-.1zM737.4 184.3l-8.5-45.6h-10v45.6h-12.6V70.9h29.3c6.7 0 12.3 5.5 12.3 12.3v43.2c0 4.8-2.7 9-6.7 11l9.3 47-13.1-.1zm-2-102.8h-16.3v47.2h16.3V81.5zM772.8 185.4c-6.7 0-12.3-5.5-12.3-12.3v-91c0-6.7 5.5-12.3 12.3-12.3h18.6c6.7 0 12.3 5.5 12.3 12.3v91.1c0 6.7-5.5 12.3-12.3 12.3h-18.6v-.1zm18.2-105h-17.8v94.5H791V80.4zM828.7 184.3L812.4 70.9H825l11.7 95.4 11.5-95.4h12.7l-16 113.4h-16.2zM870.9 184.3V70.9h35.6v10.5h-23.1v40.8h19.3v10.7h-19.3v41h23.1v10.5l-35.6-.1z"/></g><g enable-background="new"><path d="M453 384.2V201.9h47.6c10.8 0 19.7 8.8 19.7 19.7v143c0 10.8-8.8 19.7-19.7 19.7l-47.6-.1zm47-165.5h-26.8v148.6H500V218.7zM542.3 384.2V201.9h57.3v16.9h-37.1v65.6h31v17.2h-31v65.9h37.1v16.9h-57.3v-.2zM633.7 385.8c-10.8 0-19.7-8.8-19.7-19.7v-25.7h20.2V369H658v-37.4l-40.1-69.7c-3.9-6.4-3.9-13-3.9-13v-29c0-10.8 8.8-19.7 19.7-19.7h24.9c11.1 0 19.7 8.8 19.7 19.7v25.7H658V217h-23.8v33.8l40.4 69.7c3.9 6.6 3.6 12.7 3.6 12.7v32.9c0 10.8-8.6 19.7-19.7 19.7h-24.8zM698.1 384.2V201.9h20.2v182.3h-20.2zM760.1 385.8c-10.8 0-19.7-8.8-19.7-19.7V219.8c0-10.8 8.8-19.7 19.7-19.7H790c10.8 0 19.4 8.8 19.4 19.7v28.7h-20.2V217h-28.5v151.9h31v-58.7h-14.1V293h32.9v73.1c0 10.8-8.5 19.7-19.4 19.7h-31zM881.6 384.2V219h-29.9v165.2h-20.2V201.9h20.2v10.2c2.7-6.9 7.2-10.2 16-10.2h14.9c10.8 0 19.7 8.8 19.7 19.7v162.7l-20.7-.1z"/></g></g></svg>