<svg xmlns="http://www.w3.org/2000/svg" viewBox="0 307 960 253" enable-background="new 0 307 960 253"><g stroke="#EDEDD6" stroke-miterlimit="10" fill="none"><path d="M95.2 555.7h1.4M99.2 555.7h758.1M858.6 555.7h1.4"/></g><text transform="translate(78.203 782.062)" fill="#E0A300" font-family="'ProximaNova-Regular'" font-size="28.696" letter-spacing="6">CREATIVE DESIGN &amp; WEB DEVELOPMENT</text><text transform="translate(37.437 737.362)" fill="#EDEDD6" font-family="'Cubano-Regular'" font-size="104.989">Lovegrove DESIGN</text><path fill="#E0A300" d="M51.5 777.8l-8.1 5.9 3-9.5-8-5.9 10 .1 3.1-9.7 3 9.7 10.1-.1-8.1 5.9 3 9.5zm869.3 0l-8.2 5.9 3.2-9.5-8.2-5.9 10.1.1 3.1-9.7 3.1 9.7 10-.1-8.2 5.9 3.2 9.5z"/><path d="M141.3 543c-1.6 0-2.8-1.3-2.8-2.8v-21.1c0-1.6 1.3-2.8 2.8-2.8h4.3c1.6 0 2.8 1.3 2.8 2.8v4.1h-2.9v-4.5h-4.1v21.9h4.1v-5.1h2.9v4.7c0 1.6-1.2 2.8-2.8 2.8h-4.3zm26.8-.2l-2-10.6h-2.3v10.6h-2.9v-26.3h6.8c1.6 0 2.8 1.3 2.8 2.8v10c0 1.1-.6 2.1-1.6 2.6l2.2 10.9h-3zm-.5-23.8h-3.8v10.9h3.8V519zm15.6 23.8v-26.3h8.3v2.4h-5.3v9.5h4.5v2.5h-4.5v9.5h5.3v2.4h-8.3zm27.3 0v-10.6h-4v10.6h-2.9v-23.5c0-1.6 1.3-2.8 2.8-2.8h4.2c1.6 0 2.8 1.3 2.8 2.8v23.5h-2.9zm0-23.9h-4v10.8h4v-10.8zm17.5 23.9V519h-3.2v-2.5h9.3v2.5H231v23.8h-3zm18.1 0v-26.3h2.9v26.3h-2.9zm18.7 0l-3.8-26.3h2.9l2.7 22.1 2.7-22.1h3l-3.7 26.3h-3.8zm19.4 0v-26.3h8.3v2.4h-5.3v9.5h4.5v2.5h-4.5v9.5h5.3v2.4h-8.3zm36.7 0v-26.3h6.9c1.6 0 2.8 1.3 2.8 2.8v20.6c0 1.6-1.3 2.8-2.8 2.8h-6.9zm6.8-23.9h-3.9v21.4h3.9v-21.4zm15.8 23.9v-26.3h8.3v2.4h-5.3v9.5h4.5v2.5h-4.5v9.5h5.3v2.4h-8.3zm22.9.2c-1.6 0-2.8-1.3-2.8-2.8v-3.7h2.9v4.1h3.4v-5.4l-5.8-10.1c-.6-.9-.6-1.9-.6-1.9V519c0-1.6 1.3-2.8 2.8-2.8h3.6c1.6 0 2.8 1.3 2.8 2.8v3.7h-2.9v-4.1h-3.4v4.9l5.8 10.1c.6 1 .5 1.8.5 1.8v4.7c0 1.6-1.2 2.8-2.8 2.8h-3.5zm18.9-.2v-26.3h2.9v26.3h-2.9zm18.7.2c-1.6 0-2.8-1.3-2.8-2.8v-21.1c0-1.6 1.3-2.8 2.8-2.8h4.3c1.6 0 2.8 1.3 2.8 2.8v4.1h-2.9v-4.5H404v21.9h4.5v-8.5h-2v-2.5h4.7v10.5c0 1.6-1.2 2.8-2.8 2.8H404zm27.2-.2V519h-4.3v23.8H424v-26.3h2.9v1.5c.4-1 1-1.5 2.3-1.5h2.2c1.6 0 2.8 1.3 2.8 2.8v23.5h-3zm41.4 0l-1.2-2.4-.1.3c-.6 1.5-1.5 2.4-3 2.4H466c-1.5 0-2.8-1.2-2.8-2.8V533c0-.7.2-1.2.6-1.9l1.8-3.1-.9-2c-.3-.7-.6-1.2-.6-1.9V519c0-1.6 1.3-2.8 2.8-2.8h3.4c1.6 0 2.8 1.2 2.8 2.8v4.3h-2.7v-4.7h-3.5v6l4.4 9.6 1.4-3.4h2.3l-2.4 6.3 2.6 5.6h-2.6zm-2.7-5.2l-3.2-6.8-.9 1.6v8.2h2.8l1.3-3zm42.9 5.2c-1.2 0-1.8-1.2-2-1.9-.2.7-.8 1.9-2.1 1.9h-2.9c-1.6 0-2.8-1.3-2.8-2.8v-23.5h3v23.8h3.4v-23.8h2.9v23.8h3.4v-23.8h3V540c0 1.6-1.2 2.8-2.8 2.8h-3.1zm18.8 0v-26.3h8.3v2.4h-5.3v9.5h4.5v2.5h-4.5v9.5h5.3v2.4h-8.3zm20.4 0v-26.3h6.8c1.6 0 2.8 1.3 2.8 2.8v7.8c0 1.3-1.2 1.9-1.6 2 .4.1 1.8.6 1.8 2v8.9c0 1.6-1.3 2.8-2.8 2.8h-7zm6.8-23.9H555v8.9h3.8v-8.9zm.2 11.3h-4v10.1h4v-10.1zm32 12.6v-26.3h6.9c1.6 0 2.8 1.3 2.8 2.8v20.6c0 1.6-1.3 2.8-2.8 2.8H591zm6.8-23.9h-3.9v21.4h3.9v-21.4zm15.8 23.9v-26.3h8.3v2.4h-5.3v9.5h4.5v2.5h-4.5v9.5h5.3v2.4h-8.3zm23.2 0l-3.8-26.3h2.9l2.7 22.1 2.7-22.1h3l-3.7 26.3h-3.8zm19.4 0v-26.3h8.3v2.4h-5.3v9.5h4.5v2.5h-4.5v9.5h5.3v2.4h-8.3zm20.4 0v-26.3h2.9v23.9h4.7v2.4h-7.6zm22.3.2c-1.6 0-2.8-1.3-2.8-2.8v-21.1c0-1.6 1.3-2.8 2.8-2.8h4.3c1.6 0 2.8 1.3 2.8 2.8v21.1c0 1.6-1.3 2.8-2.8 2.8h-4.3zm4.2-24.3H699v21.9h4.1v-21.9zm15.8 24.1v-26.3h6.6c1.6 0 2.8 1.3 2.8 2.8v12.2c0 1.6-1.3 2.8-2.8 2.8h-3.7v8.4h-2.9zm6.5-23.8h-3.6v12.9h3.6V519zm29.7 23.8V519H751v23.8h-2.9V519H744v23.8h-2.9v-26.3h2.9v1.5c.4-1 1.3-1.5 2.7-1.5h.9c1.4 0 2.2.7 2.5 1.5.4-1 1.1-1.5 2.5-1.5h2.6c1.6 0 2.8 1.3 2.8 2.8v23.5h-2.9zm15.9 0v-26.3h8.3v2.4H774v9.5h4.5v2.5H774v9.5h5.3v2.4H771zm27.6 0V519h-4.3v23.8h-2.9v-26.3h2.9v1.5c.4-1 1-1.5 2.3-1.5h2.2c1.6 0 2.8 1.3 2.8 2.8v23.5h-3zm18 0V519h-3.2v-2.5h9.3v2.5h-3.2v23.8h-2.9z" enable-background="new" fill="#E0A300"/><text transform="translate(187.335 204.064)" fill="#E0A300" font-family="'Fairview-Regular'" font-size="34.696" letter-spacing="8">CREATIVE DESIGN &amp; WEB DEVELOPMENT</text><path fill="#E0A300" d="M108.4 534.8l-8.1 5.9 3-9.5-8-5.9 10 .1 3.1-9.7 3 9.7 10.1-.1-8.1 5.9 3 9.5zm740.3 0l-8.2 5.9 3.2-9.5-8.2-5.9 10.1.1 3.1-9.7 3.1 9.7 10-.1-8.2 5.9 3.2 9.5z"/><path d="M58.7 498.4V375.9h13.6v111.3h21.8v11.4H58.7v-.2zm58.5 1.2c-7.3 0-13.2-6-13.2-13.2V388c0-7.3 6-13.2 13.2-13.2h20.1c7.3 0 13.2 6 13.2 13.2v98.4c0 7.3-6 13.2-13.2 13.2h-20.1zm19.7-113.5h-19.2v102.1h19.2V386.1zm40.8 112.3L160 375.8h13.6l12.7 103.1 12.4-103.1h13.8l-17.3 122.6h-17.5zm45.6 0V375.9h38.5v11.4h-24.9v44.1h20.9v11.5h-20.9v44.3h24.9v11.4h-38.5v-.2zm62.5 1.2c-7.3 0-13.2-6-13.2-13.2V388c0-7.3 6-13.2 13.2-13.2h20.1c7.3 0 13 6 13 13.2v19.3h-13.6v-21.2h-19.1v102.1h20.9v-39.4h-9.5v-11.5h22.1v49.1c0 7.3-5.8 13.2-13 13.2h-20.9zm81.5-1.2l-9.1-49.2h-10.8v49.3h-13.5V375.9h31.6c7.3 0 13.2 6 13.2 13.2v46.7c0 5.2-3 9.7-7.3 11.9l10.1 50.8-14.2-.1zm-2.2-111h-17.7v50.9h17.7v-50.9zm40.4 112.2c-7.3 0-13.2-6-13.2-13.2V388c0-7.3 6-13.2 13.2-13.2h20.1c7.3 0 13.2 6 13.2 13.2v98.4c0 7.3-6 13.2-13.2 13.2h-20.1zm19.7-113.5H406v102.1h19.2V386.1zM466 498.4l-17.7-122.6h13.6l12.7 103.1L487 375.8h13.8l-17.3 122.6H466zm45.5 0V375.9H550v11.4h-24.9v44.1H546v11.5h-20.9v44.3H550v11.4h-38.5v-.2zm86.6 0V375.9h32c7.3 0 13.2 6 13.2 13.2v96.2c0 7.3-6 13.2-13.2 13.2h-32v-.1zm31.7-111.2h-18.1v99.9h18l.1-99.9zm28.4 111.2V375.9h38.5v11.4h-24.9v44.1h20.9v11.5h-20.9v44.3h24.9v11.4h-38.5v-.2zm61.4 1.2c-7.3 0-13.2-6-13.2-13.2v-17.3H720v19.2h16v-25.1l-27-46.8c-2.6-4.2-2.6-8.7-2.6-8.7V388c0-7.3 6-13.2 13.2-13.2h16.8c7.4 0 13.2 6 13.2 13.2v17.3H736v-19.2h-16v22.8l27.1 46.8c2.6 4.5 2.4 8.6 2.4 8.6v22.1c0 7.3-5.8 13.2-13.2 13.2h-16.7zm43.4-1.2V375.9h13.6v122.6H763v-.1zm41.7 1.2c-7.3 0-13.2-6-13.2-13.2V388c0-7.3 6-13.2 13.2-13.2h20.1c7.3 0 13 6 13 13.2v19.3h-13.6v-21.2H805v102.1h20.9v-39.4h-9.5v-11.5h22.1v49.1c0 7.3-5.8 13.2-13 13.2h-20.8zm81.6-1.2V387.3h-20.1v111.1h-13.6V375.9h13.6v6.9c1.9-4.6 4.9-6.9 10.8-6.9h10.1c7.3 0 13.2 6 13.2 13.2v109.4h-14v-.1z" fill="#EDEDD6"/></svg>