<svg xmlns="http://www.w3.org/2000/svg" viewBox="0 307 960 253" enable-background="new 0 307 960 253"><g stroke="#EDEDD6" stroke-miterlimit="10" fill="none"><path d="M95.2 555.7h1.4"/><path stroke-dasharray="2,2" d="M99.2 555.7h758.1"/><path d="M858.6 555.7h1.4"/></g><text transform="translate(78.203 782.062)" fill="#E0A300" font-family="'ProximaNova-Regular'" font-size="28.696" letter-spacing="6">CREATIVE DESIGN &amp; WEB DEVELOPMENT</text><text transform="translate(37.437 737.362)" fill="#EDEDD6" font-family="'Cubano-Regular'" font-size="104.989">Lovegrove DESIGN</text><path fill="#E0A300" d="M51.5 777.8l-8.1 5.9 3-9.5-8-5.9 10 .1 3.1-9.7 3 9.7 10.1-.1-8.1 5.9 3 9.5zM920.8 777.8l-8.2 5.9 3.2-9.5-8.2-5.9 10.1.1 3.1-9.7 3.1 9.7 10-.1-8.2 5.9 3.2 9.5z"/><g enable-background="new" fill="#E0A300"><path d="M141.3 543c-1.6 0-2.8-1.3-2.8-2.8v-21.1c0-1.6 1.3-2.8 2.8-2.8h4.3c1.6 0 2.8 1.3 2.8 2.8v4.1h-2.9v-4.5h-4.1v21.9h4.1v-5.1h2.9v4.7c0 1.6-1.2 2.8-2.8 2.8h-4.3zM168.1 542.8l-2-10.6h-2.3v10.6h-2.9v-26.3h6.8c1.6 0 2.8 1.3 2.8 2.8v10c0 1.1-.6 2.1-1.6 2.6l2.2 10.9h-3zm-.5-23.8h-3.8v10.9h3.8V519zM183.2 542.8v-26.3h8.3v2.4h-5.3v9.5h4.5v2.5h-4.5v9.5h5.3v2.4h-8.3zM210.5 542.8v-10.6h-4v10.6h-2.9v-23.5c0-1.6 1.3-2.8 2.8-2.8h4.2c1.6 0 2.8 1.3 2.8 2.8v23.5h-2.9zm0-23.9h-4v10.8h4v-10.8zM228 542.8V519h-3.2v-2.5h9.3v2.5H231v23.8h-3zM246.1 542.8v-26.3h2.9v26.3h-2.9zM264.8 542.8l-3.8-26.3h2.9l2.7 22.1 2.7-22.1h3l-3.7 26.3h-3.8zM284.2 542.8v-26.3h8.3v2.4h-5.3v9.5h4.5v2.5h-4.5v9.5h5.3v2.4h-8.3zM320.9 542.8v-26.3h6.9c1.6 0 2.8 1.3 2.8 2.8v20.6c0 1.6-1.3 2.8-2.8 2.8h-6.9zm6.8-23.9h-3.9v21.4h3.9v-21.4zM343.5 542.8v-26.3h8.3v2.4h-5.3v9.5h4.5v2.5h-4.5v9.5h5.3v2.4h-8.3zM366.4 543c-1.6 0-2.8-1.3-2.8-2.8v-3.7h2.9v4.1h3.4v-5.4l-5.8-10.1c-.6-.9-.6-1.9-.6-1.9V519c0-1.6 1.3-2.8 2.8-2.8h3.6c1.6 0 2.8 1.3 2.8 2.8v3.7h-2.9v-4.1h-3.4v4.9l5.8 10.1c.6 1 .5 1.8.5 1.8v4.7c0 1.6-1.2 2.8-2.8 2.8h-3.5zM385.3 542.8v-26.3h2.9v26.3h-2.9zM404 543c-1.6 0-2.8-1.3-2.8-2.8v-21.1c0-1.6 1.3-2.8 2.8-2.8h4.3c1.6 0 2.8 1.3 2.8 2.8v4.1h-2.9v-4.5H404v21.9h4.5v-8.5h-2v-2.5h4.7v10.5c0 1.6-1.2 2.8-2.8 2.8H404zM431.2 542.8V519h-4.3v23.8H424v-26.3h2.9v1.5c.4-1 1-1.5 2.3-1.5h2.2c1.6 0 2.8 1.3 2.8 2.8v23.5h-3zM472.6 542.8l-1.2-2.4-.1.3c-.6 1.5-1.5 2.4-3 2.4H466c-1.5 0-2.8-1.2-2.8-2.8V533c0-.7.2-1.2.6-1.9l1.8-3.1-.9-2c-.3-.7-.6-1.2-.6-1.9V519c0-1.6 1.3-2.8 2.8-2.8h3.4c1.6 0 2.8 1.2 2.8 2.8v4.3h-2.7v-4.7h-3.5v6l4.4 9.6 1.4-3.4h2.3l-2.4 6.3 2.6 5.6h-2.6zm-2.7-5.2l-3.2-6.8-.9 1.6v8.2h2.8l1.3-3zM512.8 542.8c-1.2 0-1.8-1.2-2-1.9-.2.7-.8 1.9-2.1 1.9h-2.9c-1.6 0-2.8-1.3-2.8-2.8v-23.5h3v23.8h3.4v-23.8h2.9v23.8h3.4v-23.8h3V540c0 1.6-1.2 2.8-2.8 2.8h-3.1zM531.6 542.8v-26.3h8.3v2.4h-5.3v9.5h4.5v2.5h-4.5v9.5h5.3v2.4h-8.3zM552 542.8v-26.3h6.8c1.6 0 2.8 1.3 2.8 2.8v7.8c0 1.3-1.2 1.9-1.6 2 .4.1 1.8.6 1.8 2v8.9c0 1.6-1.3 2.8-2.8 2.8h-7zm6.8-23.9H555v8.9h3.8v-8.9zm.2 11.3h-4v10.1h4v-10.1zM591 542.8v-26.3h6.9c1.6 0 2.8 1.3 2.8 2.8v20.6c0 1.6-1.3 2.8-2.8 2.8H591zm6.8-23.9h-3.9v21.4h3.9v-21.4zM613.6 542.8v-26.3h8.3v2.4h-5.3v9.5h4.5v2.5h-4.5v9.5h5.3v2.4h-8.3zM636.8 542.8l-3.8-26.3h2.9l2.7 22.1 2.7-22.1h3l-3.7 26.3h-3.8zM656.2 542.8v-26.3h8.3v2.4h-5.3v9.5h4.5v2.5h-4.5v9.5h5.3v2.4h-8.3zM676.6 542.8v-26.3h2.9v23.9h4.7v2.4h-7.6zM698.9 543c-1.6 0-2.8-1.3-2.8-2.8v-21.1c0-1.6 1.3-2.8 2.8-2.8h4.3c1.6 0 2.8 1.3 2.8 2.8v21.1c0 1.6-1.3 2.8-2.8 2.8h-4.3zm4.2-24.3H699v21.9h4.1v-21.9zM718.9 542.8v-26.3h6.6c1.6 0 2.8 1.3 2.8 2.8v12.2c0 1.6-1.3 2.8-2.8 2.8h-3.7v8.4h-2.9zm6.5-23.8h-3.6v12.9h3.6V519zM755.1 542.8V519H751v23.8h-2.9V519H744v23.8h-2.9v-26.3h2.9v1.5c.4-1 1.3-1.5 2.7-1.5h.9c1.4 0 2.2.7 2.5 1.5.4-1 1.1-1.5 2.5-1.5h2.6c1.6 0 2.8 1.3 2.8 2.8v23.5h-2.9zM771 542.8v-26.3h8.3v2.4H774v9.5h4.5v2.5H774v9.5h5.3v2.4H771zM798.6 542.8V519h-4.3v23.8h-2.9v-26.3h2.9v1.5c.4-1 1-1.5 2.3-1.5h2.2c1.6 0 2.8 1.3 2.8 2.8v23.5h-3zM816.6 542.8V519h-3.2v-2.5h9.3v2.5h-3.2v23.8h-2.9z"/></g><text transform="translate(187.335 204.064)" fill="#E0A300" font-family="'Fairview-Regular'" font-size="34.696" letter-spacing="8">CREATIVE DESIGN &amp; WEB DEVELOPMENT</text><path fill="#E0A300" d="M108.4 534.8l-8.1 5.9 3-9.5-8-5.9 10 .1 3.1-9.7 3 9.7 10.1-.1-8.1 5.9 3 9.5zM848.7 534.8l-8.2 5.9 3.2-9.5-8.2-5.9 10.1.1 3.1-9.7 3.1 9.7 10-.1-8.2 5.9 3.2 9.5z"/><g fill="#EDEDD6"><path d="M58.7 498.4V375.9h13.6v111.3h21.8v11.4H58.7v-.2zM117.2 499.6c-7.3 0-13.2-6-13.2-13.2V388c0-7.3 6-13.2 13.2-13.2h20.1c7.3 0 13.2 6 13.2 13.2v98.4c0 7.3-6 13.2-13.2 13.2h-20.1zm19.7-113.5h-19.2v102.1h19.2V386.1zM177.7 498.4L160 375.8h13.6l12.7 103.1 12.4-103.1h13.8l-17.3 122.6h-17.5zM223.3 498.4V375.9h38.5v11.4h-24.9v44.1h20.9v11.5h-20.9v44.3h24.9v11.4h-38.5v-.2zM285.8 499.6c-7.3 0-13.2-6-13.2-13.2V388c0-7.3 6-13.2 13.2-13.2h20.1c7.3 0 13 6 13 13.2v19.3h-13.6v-21.2h-19.1v102.1h20.9v-39.4h-9.5v-11.5h22.1v49.1c0 7.3-5.8 13.2-13 13.2h-20.9zM367.3 498.4l-9.1-49.2h-10.8v49.3h-13.5V375.9h31.6c7.3 0 13.2 6 13.2 13.2v46.7c0 5.2-3 9.7-7.3 11.9l10.1 50.8-14.2-.1zm-2.2-111h-17.7v50.9h17.7v-50.9zM405.5 499.6c-7.3 0-13.2-6-13.2-13.2V388c0-7.3 6-13.2 13.2-13.2h20.1c7.3 0 13.2 6 13.2 13.2v98.4c0 7.3-6 13.2-13.2 13.2h-20.1zm19.7-113.5H406v102.1h19.2V386.1zM466 498.4l-17.7-122.6h13.6l12.7 103.1L487 375.8h13.8l-17.3 122.6H466zM511.5 498.4V375.9H550v11.4h-24.9v44.1H546v11.5h-20.9v44.3H550v11.4h-38.5v-.2zM598.1 498.4V375.9h32c7.3 0 13.2 6 13.2 13.2v96.2c0 7.3-6 13.2-13.2 13.2h-32v-.1zm31.7-111.2h-18.1v99.9h18l.1-99.9zM658.2 498.4V375.9h38.5v11.4h-24.9v44.1h20.9v11.5h-20.9v44.3h24.9v11.4h-38.5v-.2zM719.6 499.6c-7.3 0-13.2-6-13.2-13.2v-17.3H720v19.2h16v-25.1l-27-46.8c-2.6-4.2-2.6-8.7-2.6-8.7V388c0-7.3 6-13.2 13.2-13.2h16.8c7.4 0 13.2 6 13.2 13.2v17.3H736v-19.2h-16v22.8l27.1 46.8c2.6 4.5 2.4 8.6 2.4 8.6v22.1c0 7.3-5.8 13.2-13.2 13.2h-16.7zM763 498.4V375.9h13.6v122.6H763v-.1zM804.7 499.6c-7.3 0-13.2-6-13.2-13.2V388c0-7.3 6-13.2 13.2-13.2h20.1c7.3 0 13 6 13 13.2v19.3h-13.6v-21.2H805v102.1h20.9v-39.4h-9.5v-11.5h22.1v49.1c0 7.3-5.8 13.2-13 13.2h-20.8zM886.3 498.4V387.3h-20.1v111.1h-13.6V375.9h13.6v6.9c1.9-4.6 4.9-6.9 10.8-6.9h10.1c7.3 0 13.2 6 13.2 13.2v109.4h-14v-.1z"/></g></svg>