<?xml version="1.0" encoding="utf-8"?>
<!-- Generator: Adobe Illustrator 21.0.0, SVG Export Plug-In . SVG Version: 6.00 Build 0)  -->
<svg version="1.1" id="Layer_1" xmlns="http://www.w3.org/2000/svg" xmlns:xlink="http://www.w3.org/1999/xlink" x="0px" y="0px"
	 viewBox="0 0 350 350" style="enable-background:new 0 0 350 350;" xml:space="preserve">
<style type="text/css">
	.st0{display:none;fill:#FFFFFF;}
	.st1{fill:#FFFFFF;}
</style>
<circle class="st0" cx="175.3" cy="175.4" r="150"/>
<g>
	<path class="st1" d="M173,220h-19.9v-81.4l0,0V87.5h-48.7v175.6h67c1.3,0,2.6-0.1,3.8-0.1v-43.1C174.5,220,173.8,220,173,220z"/>
	<path class="st1" d="M172.5,87.6h-8.4v42.9h8.9c29.4,0,48.7,16.6,48.7,44.7v0.5c0,23.8-13.7,38.9-35.4,43.1v43.6
		c53.9-5.4,85.1-41,85.1-87.6v-0.5C271.4,123.7,234.9,87.6,172.5,87.6z"/>
</g>
</svg>
